<svg width="50" height="50" viewBox="0 0 50 50" fill="none" xmlns="http://www.w3.org/2000/svg">
<path d="M44.6428 1.78564H5.35707C3.38462 1.78564 1.78564 3.38463 1.78564 5.35707V44.6428C1.78564 46.6152 3.38462 48.2142 5.35707 48.2142H44.6428C46.6153 48.2142 48.2142 46.6152 48.2142 44.6428V5.35707C48.2142 3.38463 46.6153 1.78564 44.6428 1.78564Z" stroke="#4E85A1" stroke-width="1.5" stroke-linecap="round" stroke-linejoin="round"/>
<path d="M25 41.0713C31.9036 41.0713 37.5 35.4748 37.5 28.5713C37.5 21.6677 31.9036 16.0713 25 16.0713C18.0964 16.0713 12.5 21.6677 12.5 28.5713C12.5 35.4748 18.0964 41.0713 25 41.0713Z" stroke="#4E85A1" stroke-width="1.5" stroke-linecap="round" stroke-linejoin="round"/>
<path d="M1.78564 12.5H12.5" stroke="#4E85A1" stroke-width="1.5" stroke-linecap="round" stroke-linejoin="round"/>
<path d="M37.5 12.5H48.2143" stroke="#4E85A1" stroke-width="1.5" stroke-linecap="round" stroke-linejoin="round"/>
<path d="M25 28.4644V40.9644" stroke="#4E85A1" stroke-width="1.5" stroke-linecap="round" stroke-linejoin="round"/>
<path d="M14.2856 22.1426L24.9999 28.464" stroke="#4E85A1" stroke-width="1.5" stroke-linecap="round" stroke-linejoin="round"/>
<path d="M35.7143 22.1426L25 28.464" stroke="#4E85A1" stroke-width="1.5" stroke-linecap="round" stroke-linejoin="round"/>
</svg>
