<svg width="40" height="40" viewBox="0 0 40 40" fill="none" xmlns="http://www.w3.org/2000/svg">
<path d="M12.8572 37.1428C19.1691 37.1428 24.2858 32.026 24.2858 25.7142C24.2858 19.4024 19.1691 14.2856 12.8572 14.2856C6.54545 14.2856 1.42871 19.4024 1.42871 25.7142C1.42871 32.026 6.54545 37.1428 12.8572 37.1428Z" stroke="#4E85A1" stroke-width="1.5" stroke-linecap="round" stroke-linejoin="round"/>
<path d="M27.1425 37.1428C33.4543 37.1428 38.5711 32.026 38.5711 25.7142C38.5711 19.4024 33.4543 14.2856 27.1425 14.2856C20.8307 14.2856 15.7139 19.4024 15.7139 25.7142C15.7139 32.026 20.8307 37.1428 27.1425 37.1428Z" stroke="#4E85A1" stroke-width="1.5" stroke-linecap="round" stroke-linejoin="round"/>
<path d="M19.9999 25.7143C26.3117 25.7143 31.4284 20.5976 31.4284 14.2857C31.4284 7.97392 26.3117 2.85718 19.9999 2.85718C13.688 2.85718 8.57129 7.97392 8.57129 14.2857C8.57129 20.5976 13.688 25.7143 19.9999 25.7143Z" stroke="#4E85A1" stroke-width="1.5" stroke-linecap="round" stroke-linejoin="round"/>
</svg>
