<svg width="50" height="50" viewBox="0 0 50 50" fill="none" xmlns="http://www.w3.org/2000/svg">
<path d="M44.6429 5.35718L32.4644 17.5357" stroke="#4E85A1" stroke-width="1.5" stroke-linecap="round" stroke-linejoin="round"/>
<path d="M5.35742 5.35718L17.5359 17.5357" stroke="#4E85A1" stroke-width="1.5" stroke-linecap="round" stroke-linejoin="round"/>
<path d="M5.35742 44.6429L17.5359 32.4644" stroke="#4E85A1" stroke-width="1.5" stroke-linecap="round" stroke-linejoin="round"/>
<path d="M44.6429 44.6429L32.4644 32.4644" stroke="#4E85A1" stroke-width="1.5" stroke-linecap="round" stroke-linejoin="round"/>
<path d="M25 48.2143C37.8208 48.2143 48.2142 37.8209 48.2142 25.0001C48.2142 12.1792 37.8208 1.78577 25 1.78577C12.1791 1.78577 1.78564 12.1792 1.78564 25.0001C1.78564 37.8209 12.1791 48.2143 25 48.2143Z" stroke="#4E85A1" stroke-width="1.5" stroke-linecap="round" stroke-linejoin="round"/>
<path d="M25.0001 35.5358C30.8188 35.5358 35.5358 30.8188 35.5358 25.0001C35.5358 19.1814 30.8188 14.4644 25.0001 14.4644C19.1814 14.4644 14.4644 19.1814 14.4644 25.0001C14.4644 30.8188 19.1814 35.5358 25.0001 35.5358Z" stroke="#4E85A1" stroke-width="1.5" stroke-linecap="round" stroke-linejoin="round"/>
</svg>
