<svg width="40" height="40" viewBox="0 0 40 40" fill="none" xmlns="http://www.w3.org/2000/svg">
<g clip-path="url(#clip0_153_478)">
<mask id="mask0_153_478" style="mask-type:luminance" maskUnits="userSpaceOnUse" x="0" y="0" width="40" height="40">
<path d="M40 0H0V40H40V0Z" fill="white"/>
</mask>
<g mask="url(#mask0_153_478)">
<path d="M9.28585 17.1428C13.6252 17.1428 17.143 13.625 17.143 9.28561C17.143 4.94623 13.6252 1.42847 9.28585 1.42847C4.94647 1.42847 1.42871 4.94623 1.42871 9.28561C1.42871 13.625 4.94647 17.1428 9.28585 17.1428Z" stroke="#4E85A1" stroke-width="1.5" stroke-linecap="round" stroke-linejoin="round"/>
<path d="M30.7141 17.1428C35.0535 17.1428 38.5712 13.625 38.5712 9.28561C38.5712 4.94623 35.0535 1.42847 30.7141 1.42847C26.3747 1.42847 22.8569 4.94623 22.8569 9.28561C22.8569 13.625 26.3747 17.1428 30.7141 17.1428Z" stroke="#4E85A1" stroke-width="1.5" stroke-linecap="round" stroke-linejoin="round"/>
<path d="M9.28585 38.5712C13.6252 38.5712 17.143 35.0535 17.143 30.7141C17.143 26.3747 13.6252 22.8569 9.28585 22.8569C4.94647 22.8569 1.42871 26.3747 1.42871 30.7141C1.42871 35.0535 4.94647 38.5712 9.28585 38.5712Z" stroke="#4E85A1" stroke-width="1.5" stroke-linecap="round" stroke-linejoin="round"/>
<path d="M30.7141 38.5712C35.0535 38.5712 38.5712 35.0535 38.5712 30.7141C38.5712 26.3747 35.0535 22.8569 30.7141 22.8569C26.3747 22.8569 22.8569 26.3747 22.8569 30.7141C22.8569 35.0535 26.3747 38.5712 30.7141 38.5712Z" stroke="#4E85A1" stroke-width="1.5" stroke-linecap="round" stroke-linejoin="round"/>
</g>
</g>
<defs>
<clipPath id="clip0_153_478">
<rect width="40" height="40" fill="white"/>
</clipPath>
</defs>
</svg>
