<svg width="50" height="50" viewBox="0 0 50 50" fill="none" xmlns="http://www.w3.org/2000/svg">
<path d="M48.2143 37.5V44.6429C48.2143 45.5901 47.838 46.4985 47.1682 47.1682C46.4985 47.838 45.5901 48.2143 44.6429 48.2143H37.5" stroke="#4E85A1" stroke-width="1.5" stroke-linecap="round" stroke-linejoin="round"/>
<path d="M37.5 1.78577H44.6429C45.5901 1.78577 46.4985 2.16204 47.1682 2.83181C47.838 3.50159 48.2143 4.40999 48.2143 5.3572V12.5001" stroke="#4E85A1" stroke-width="1.5" stroke-linecap="round" stroke-linejoin="round"/>
<path d="M1.78564 12.5001V5.3572C1.78564 4.40999 2.16192 3.50159 2.83169 2.83181C3.50146 2.16204 4.40987 1.78577 5.35707 1.78577H12.4999" stroke="#4E85A1" stroke-width="1.5" stroke-linecap="round" stroke-linejoin="round"/>
<path d="M12.4999 48.2143H5.35707C4.40987 48.2143 3.50146 47.838 2.83169 47.1682C2.16192 46.4985 1.78564 45.5901 1.78564 44.6429V37.5" stroke="#4E85A1" stroke-width="1.5" stroke-linecap="round" stroke-linejoin="round"/>
<path d="M41.0715 25.0001C41.0715 25.0001 33.9287 35.7143 25.0001 35.7143C16.0715 35.7143 8.92871 25.0001 8.92871 25.0001C8.92871 25.0001 16.0715 14.2858 25.0001 14.2858C33.9287 14.2858 41.0715 25.0001 41.0715 25.0001Z" stroke="#4E85A1" stroke-width="1.5" stroke-linecap="round" stroke-linejoin="round"/>
<path d="M24.9996 26.7858C25.9858 26.7858 26.7853 25.9863 26.7853 25.0001C26.7853 24.0138 25.9858 23.2144 24.9996 23.2144C24.0134 23.2144 23.2139 24.0138 23.2139 25.0001C23.2139 25.9863 24.0134 26.7858 24.9996 26.7858Z" stroke="#4E85A1" stroke-width="1.5" stroke-linecap="round" stroke-linejoin="round"/>
</svg>
