<svg width="50" height="50" viewBox="0 0 50 50" fill="none" xmlns="http://www.w3.org/2000/svg">
<path d="M33.9283 5.35693H39.2855C40.2327 5.35693 41.1411 5.73321 41.8109 6.40298C42.4806 7.07275 42.8569 7.98116 42.8569 8.92836V44.6426C42.8569 45.5898 42.4806 46.4983 41.8109 47.168C41.1411 47.8378 40.2327 48.2141 39.2855 48.2141H10.7141C9.76681 48.2141 8.8584 47.8378 8.18863 47.168C7.51886 46.4983 7.14258 45.5898 7.14258 44.6426V8.92836C7.14258 7.98116 7.51886 7.07275 8.18863 6.40298C8.8584 5.73321 9.76681 5.35693 10.7141 5.35693H16.0712" stroke="#4E85A1" stroke-width="1.5" stroke-linecap="round" stroke-linejoin="round"/>
<path d="M30.357 1.78564H19.6427C17.6703 1.78564 16.0713 3.38463 16.0713 5.35707V7.14279C16.0713 9.11523 17.6703 10.7142 19.6427 10.7142H30.357C32.3295 10.7142 33.9285 9.11523 33.9285 7.14279V5.35707C33.9285 3.38463 32.3295 1.78564 30.357 1.78564Z" stroke="#4E85A1" stroke-width="1.5" stroke-linecap="round" stroke-linejoin="round"/>
<path d="M16.0713 19.6426H33.9285" stroke="#4E85A1" stroke-width="1.5" stroke-linecap="round" stroke-linejoin="round"/>
<path d="M16.0713 28.5713H33.9285" stroke="#4E85A1" stroke-width="1.5" stroke-linecap="round" stroke-linejoin="round"/>
<path d="M16.0713 37.5H33.9285" stroke="#4E85A1" stroke-width="1.5" stroke-linecap="round" stroke-linejoin="round"/>
</svg>
