<svg width="40" height="40" viewBox="0 0 40 40" fill="none" xmlns="http://www.w3.org/2000/svg">
<g clip-path="url(#clip0_153_470)">
<mask id="mask0_153_470" style="mask-type:luminance" maskUnits="userSpaceOnUse" x="0" y="0" width="40" height="40">
<path d="M40 0H0V40H40V0Z" fill="white"/>
</mask>
<g mask="url(#mask0_153_470)">
<path d="M21.343 19.7143C20.9193 19.8983 20.4622 19.9933 20.0002 19.9933C19.5382 19.9933 19.0811 19.8983 18.6573 19.7143L2.37165 12.1714C2.1072 12.038 1.88496 11.8339 1.72968 11.5816C1.57441 11.3294 1.49219 11.039 1.49219 10.7428C1.49219 10.4467 1.57441 10.1563 1.72968 9.90406C1.88496 9.65184 2.1072 9.44766 2.37165 9.31428L18.6573 1.71428C19.0811 1.53026 19.5382 1.4353 20.0002 1.4353C20.4622 1.4353 20.9193 1.53026 21.343 1.71428L37.6287 9.25713C37.8932 9.39052 38.1154 9.59469 38.2707 9.84692C38.426 10.0991 38.5082 10.3895 38.5082 10.6857C38.5082 10.9819 38.426 11.2723 38.2707 11.5245C38.1154 11.7767 37.8932 11.9809 37.6287 12.1143L21.343 19.7143Z" stroke="#4E85A1" stroke-width="1.5" stroke-linecap="round" stroke-linejoin="round"/>
<path d="M38.5715 21L21.143 29.0286C20.7707 29.1984 20.3664 29.2862 19.9572 29.2862C19.5481 29.2862 19.1438 29.1984 18.7715 29.0286L1.42871 21" stroke="#4E85A1" stroke-width="1.5" stroke-linecap="round" stroke-linejoin="round"/>
<path d="M38.5715 30.2856L21.143 38.3142C20.7707 38.484 20.3664 38.5719 19.9572 38.5719C19.5481 38.5719 19.1438 38.484 18.7715 38.3142L1.42871 30.2856" stroke="#4E85A1" stroke-width="1.5" stroke-linecap="round" stroke-linejoin="round"/>
</g>
</g>
<defs>
<clipPath id="clip0_153_470">
<rect width="40" height="40" fill="white"/>
</clipPath>
</defs>
</svg>
