<svg width="51" height="51" viewBox="0 0 51 51" fill="none" xmlns="http://www.w3.org/2000/svg">
<path d="M45.4901 6.10693L33.3115 18.2855" stroke="#4E85A1" stroke-width="1.5" stroke-linecap="round" stroke-linejoin="round"/>
<path d="M6.20459 6.10693L18.3831 18.2855" stroke="#4E85A1" stroke-width="1.5" stroke-linecap="round" stroke-linejoin="round"/>
<path d="M6.20459 45.3929L18.3831 33.2144" stroke="#4E85A1" stroke-width="1.5" stroke-linecap="round" stroke-linejoin="round"/>
<path d="M45.4901 45.3929L33.3115 33.2144" stroke="#4E85A1" stroke-width="1.5" stroke-linecap="round" stroke-linejoin="round"/>
<path d="M25.8471 48.9642C38.668 48.9642 49.0614 38.5708 49.0614 25.7499C49.0614 12.929 38.668 2.53564 25.8471 2.53564C13.0262 2.53564 2.63281 12.929 2.63281 25.7499C2.63281 38.5708 13.0262 48.9642 25.8471 48.9642Z" stroke="#4E85A1" stroke-width="1.5" stroke-linecap="round" stroke-linejoin="round"/>
<path d="M25.8472 36.2858C31.6659 36.2858 36.3829 31.5688 36.3829 25.7501C36.3829 19.9314 31.6659 15.2144 25.8472 15.2144C20.0285 15.2144 15.3115 19.9314 15.3115 25.7501C15.3115 31.5688 20.0285 36.2858 25.8472 36.2858Z" stroke="#4E85A1" stroke-width="1.5" stroke-linecap="round" stroke-linejoin="round"/>
</svg>
