<svg width="50" height="50" viewBox="0 0 50 50" fill="none" xmlns="http://www.w3.org/2000/svg">
<path d="M13.9862 23.9261H23.9274V36.9195C22.3185 37.4461 20.7973 37.8117 19.3785 38.0263C17.9597 38.2408 16.502 38.3432 15.0149 38.3432C11.2315 38.3432 8.34513 37.2315 6.35103 35.0083C4.35692 32.785 3.3623 29.5964 3.3623 25.4376C3.3623 21.2787 4.51781 18.2363 6.83371 15.9741C9.1496 13.7118 12.3577 12.5807 16.4581 12.5807C19.0275 12.5807 21.5092 13.0926 23.8982 14.1214L22.1332 18.3729C20.3049 17.4563 18.4034 17.0028 16.4239 17.0028C14.1276 17.0028 12.2895 17.7732 10.9048 19.3187C9.52014 20.8594 8.83269 22.9364 8.83269 25.5399C8.83269 28.1435 9.3885 30.3375 10.505 31.7709C11.6215 33.2043 13.2402 33.921 15.3659 33.921C16.4727 33.921 17.599 33.8089 18.7447 33.5797V28.3531H13.9959V23.931L13.9862 23.9261Z" fill="#4E85A1"/>
<path d="M33.9902 18.158C33.9902 18.9478 33.9217 20.2113 33.7852 21.947H33.9902C35.2139 20.0505 37.0233 19.0995 39.4219 19.0994C41.684 19.0994 43.4541 19.982 44.7363 21.7468C46.0136 23.5118 46.6572 25.9303 46.6572 29.0066C46.6572 32.083 45.999 34.6235 44.6777 36.3591C43.3565 38.0946 41.5619 38.9626 39.2852 38.9626C37.0085 38.9625 35.2676 38.1427 33.9902 36.5095H33.6299L32.7568 38.616H28.7637V11.9519H33.9902V18.158ZM41.793 22.5955C41.6814 22.5955 41.591 22.6851 41.5908 22.7966V23.0115C41.59 23.2872 40.8182 23.702 40.2373 23.9099C39.889 23.5438 39.4152 23.2751 38.8945 23.2751C38.3741 23.2753 37.9403 23.5233 37.5957 23.8679C36.9638 23.6173 36.3553 23.2457 36.3545 23.0115V22.7966C36.3543 22.6851 36.2639 22.5955 36.1523 22.5955C36.0409 22.5957 35.9514 22.6852 35.9512 22.7966V23.0115C35.9517 23.5401 36.7982 23.9735 37.3223 24.1921C37.1024 24.5083 36.966 24.8599 36.9541 25.1677C36.5037 25.3293 36.1408 25.5651 35.8662 25.8835C35.7545 26.0131 35.6592 26.1622 35.5771 26.3191L35.3262 26.0388C34.5275 25.1462 34.3379 24.9326 34.3379 23.6013V23.198C34.3379 23.0863 34.2474 22.9959 34.1357 22.9958C34.024 22.9958 33.9336 23.0863 33.9336 23.198V23.6013C33.9336 25.0871 34.2079 25.3944 35.0244 26.3083L35.3008 26.6189C35.3305 26.6543 35.3731 26.6711 35.417 26.6794C35.3231 26.9432 35.2615 27.2355 35.2354 27.5623C34.048 27.9604 33.5323 28.8377 33.5322 30.4753V30.8523C33.5322 30.9639 33.6219 31.0542 33.7334 31.0544C33.8451 31.0544 33.9355 30.964 33.9355 30.8523V30.4753C33.9356 29.0957 34.3188 28.358 35.2207 27.9978C35.2231 28.3139 35.251 28.6541 35.3057 29.0212C35.3152 29.0972 35.3319 29.1709 35.3438 29.2468C35.3414 29.2528 35.3352 29.2553 35.334 29.2625L35.1553 29.7068C34.5051 31.3185 34.3079 31.805 34.9248 33.7009C34.9534 33.7851 35.0306 33.8385 35.1172 33.8386C35.1374 33.8386 35.1595 33.836 35.1797 33.8289C35.2851 33.7942 35.3429 33.6805 35.3086 33.575C34.7499 31.8585 34.8841 31.4563 35.4844 29.9646C36.0716 32.5012 37.4452 34.3767 38.8193 34.3767C38.8472 34.3767 38.8761 34.3771 38.8828 34.3738C38.9113 34.3738 38.9414 34.3767 38.9688 34.3767C40.3523 34.3767 41.7387 32.4692 42.3164 29.8982C42.9166 31.4136 43.0189 31.8324 42.4531 33.575C42.4187 33.6807 42.4765 33.7932 42.5811 33.8289C42.6012 33.8371 42.6225 33.8386 42.6426 33.8386C42.7268 33.8386 42.8063 33.7851 42.835 33.7009C43.478 31.7243 43.2893 31.2521 42.5869 29.4919L42.4951 29.2634C42.4856 29.2373 42.469 29.216 42.4512 29.197C42.4607 29.1388 42.4719 29.0804 42.4814 29.0222C42.5397 28.6336 42.5654 28.2794 42.5654 27.949C43.5685 28.3008 44.0077 29.0635 44.0078 30.4753V30.8523C44.0078 30.964 44.0982 31.0544 44.21 31.0544C44.3215 31.0542 44.4111 30.9639 44.4111 30.8523V30.4753C44.411 28.8115 43.8351 27.8983 42.5479 27.5144V27.5115L42.5488 27.5125C42.5251 27.2463 42.4793 27.0002 42.4092 26.7732C42.4328 26.7613 42.4567 26.7466 42.4756 26.7253C42.6122 26.5709 42.7361 26.4357 42.8525 26.3074C43.6251 25.4588 44.0107 25.0314 44.0107 23.6003V23.196C44.0105 23.0845 43.9202 22.9939 43.8086 22.9939C43.6972 22.9941 43.6067 23.0846 43.6064 23.196V23.6003C43.6064 24.8755 43.3205 25.1921 42.5518 26.0369C42.4579 26.1415 42.3533 26.2564 42.2451 26.3777C42.1548 26.197 42.051 26.0312 41.9238 25.8826C41.6481 25.5617 41.2864 25.3243 40.8359 25.1638C40.8241 24.8714 40.7038 24.5431 40.5029 24.24C40.9688 24.0617 41.9946 23.5996 41.9951 23.0115V22.7966C41.9949 22.6851 41.9046 22.5955 41.793 22.5955Z" fill="#07364D"/>
</svg>
