<svg width="50" height="50" viewBox="0 0 50 50" fill="none" xmlns="http://www.w3.org/2000/svg">
<g clip-path="url(#clip0_158_264)">
<mask id="mask0_158_264" style="mask-type:luminance" maskUnits="userSpaceOnUse" x="0" y="0" width="50" height="50">
<path d="M50 0H0V50H50V0Z" fill="white"/>
</mask>
<g mask="url(#mask0_158_264)">
<path d="M5.35756 21.4286H8.92899C9.40259 21.4286 9.85679 21.6167 10.1917 21.9516C10.5266 22.2865 10.7147 22.7407 10.7147 23.2143V32.1429C10.7147 32.6165 10.5266 33.0707 10.1917 33.4056C9.85679 33.7405 9.40259 33.9286 8.92899 33.9286H5.35756C4.41036 33.9286 3.50195 33.5523 2.83218 32.8825C2.16241 32.2128 1.78613 31.3044 1.78613 30.3572V25C1.78613 24.0528 2.16241 23.1444 2.83218 22.4746C3.50195 21.8049 4.41036 21.4286 5.35756 21.4286Z" stroke="#4E85A1" stroke-width="2" stroke-linecap="round" stroke-linejoin="round"/>
<path d="M44.6432 33.9286H41.0718C40.5982 33.9286 40.144 33.7405 39.8091 33.4056C39.4742 33.0707 39.2861 32.6165 39.2861 32.1429V23.2143C39.2861 22.7407 39.4742 22.2865 39.8091 21.9516C40.144 21.6167 40.5982 21.4286 41.0718 21.4286H44.6432C45.5904 21.4286 46.4988 21.8049 47.1686 22.4746C47.8384 23.1444 48.2146 24.0528 48.2146 25V30.3572C48.2146 31.3044 47.8384 32.2128 47.1686 32.8825C46.4988 33.5523 45.5904 33.9286 44.6432 33.9286Z" stroke="#4E85A1" stroke-width="2" stroke-linecap="round" stroke-linejoin="round"/>
<path d="M33.9287 43.75C35.8231 43.75 37.6399 42.9975 38.9795 41.6579C40.319 40.3184 41.0716 38.5016 41.0716 36.6072V33.9286" stroke="#4E85A1" stroke-width="2" stroke-linecap="round" stroke-linejoin="round"/>
<path d="M29.465 39.2857C30.649 39.2857 31.7845 39.756 32.6217 40.5933C33.4589 41.4305 33.9293 42.566 33.9293 43.75C33.9293 44.934 33.4589 46.0695 32.6217 46.9067C31.7845 47.7439 30.649 48.2143 29.465 48.2143H24.1078C22.9238 48.2143 21.7883 47.7439 20.9511 46.9067C20.1139 46.0695 19.6436 44.934 19.6436 43.75C19.6436 42.566 20.1139 41.4305 20.9511 40.5933C21.7883 39.756 22.9238 39.2857 24.1078 39.2857H29.465Z" stroke="#4E85A1" stroke-width="2" stroke-linecap="round" stroke-linejoin="round"/>
<path d="M8.92871 21.4286V17.8571C8.92871 13.5947 10.6219 9.5069 13.6359 6.49292C16.6499 3.47894 20.7377 1.78571 25.0001 1.78571C29.2625 1.78571 33.3504 3.47894 36.3644 6.49292C39.3783 9.5069 41.0716 13.5947 41.0716 17.8571V21.4286" stroke="#4E85A1" stroke-width="2" stroke-linecap="round" stroke-linejoin="round"/>
<path d="M19.6436 14.2857V19.6428" stroke="#4E85A1" stroke-width="2" stroke-linecap="round" stroke-linejoin="round"/>
<path d="M30.3574 14.2857V19.6428" stroke="#4E85A1" stroke-width="2" stroke-linecap="round" stroke-linejoin="round"/>
<path d="M19.6436 26.7857C19.6436 31.5357 30.3578 31.5357 30.3578 26.7857" stroke="#4E85A1" stroke-width="2" stroke-linecap="round" stroke-linejoin="round"/>
</g>
</g>
<defs>
<clipPath id="clip0_158_264">
<rect width="50" height="50" fill="white"/>
</clipPath>
</defs>
</svg>
